<?xml version="1.0" standalone="no"?>
<!DOCTYPE svg PUBLIC "-//W3C//DTD SVG 20010904//EN"
 "http://www.w3.org/TR/2001/REC-SVG-20010904/DTD/svg10.dtd">
<svg version="1.0" xmlns="http://www.w3.org/2000/svg"
 width="400.000000pt" height="400.000000pt" viewBox="0 0 400.000000 400.000000"
 preserveAspectRatio="xMidYMid meet">
<metadata>
Created by potrace 1.14, written by Peter Selinger 2001-2017
</metadata>
<g transform="translate(0.000000,400.000000) scale(0.100000,-0.100000)"
fill="#000000" stroke="none">
<path d="M2230 3943 c-64 -23 -172 -140 -226 -245 -27 -55 -28 -60 -14 -85 11
-20 25 -29 48 -31 18 -2 30 -8 27 -13 -8 -13 4 -11 61 6 30 9 90 15 155 15
107 0 169 -14 247 -54 31 -16 31 -16 26 10 -5 28 -47 144 -66 184 -28 57 -89
147 -115 170 -43 38 -106 56 -143 43z"/>
<path d="M2867 3689 c-9 -6 -35 -11 -57 -12 -52 -2 -52 -23 0 -31 120 -18 114
-15 132 -54 9 -20 24 -63 33 -95 9 -32 23 -61 31 -64 8 -3 14 -16 14 -30 0
-15 5 -23 13 -20 16 5 11 52 -14 147 -29 109 -48 143 -82 146 -16 2 -34 7 -40
13 -8 6 -18 6 -30 0z"/>
<path d="M1443 3630 c-29 -12 -29 -38 -3 -124 21 -65 47 -106 30 -44 -6 20 -6
36 1 44 7 8 7 14 -1 19 -14 8 -13 52 2 61 6 4 30 7 52 6 23 -1 36 2 30 6 -6 4
-13 15 -17 25 -7 19 -55 22 -94 7z"/>
<path d="M2797 3542 c-24 -2 -40 -9 -44 -20 -4 -9 -11 -20 -16 -23 -5 -3 -11
-27 -13 -53 -3 -27 -12 -56 -23 -68 l-19 -20 -8 24 c-7 20 -10 47 -13 112 -1
19 -2 19 -21 -1 -19 -22 -19 -22 1 -69 17 -37 19 -51 10 -71 -11 -23 -12 -23
-42 -8 -46 24 -44 14 6 -25 24 -19 44 -40 45 -45 0 -17 54 -70 70 -70 8 0 18
-4 21 -9 10 -13 60 40 53 57 -4 10 3 13 26 9 19 -3 30 0 30 8 0 7 8 9 20 5 11
-4 20 -2 20 4 0 6 6 11 14 11 19 0 24 20 26 97 1 76 -14 138 -38 148 -22 10
-58 12 -105 7z m-57 -181 c0 -5 -7 -14 -15 -21 -12 -10 -15 -10 -15 2 0 8 3
18 7 21 9 10 23 9 23 -2z m140 -26 c8 -10 6 -15 -9 -20 -12 -3 -21 -11 -21
-16 0 -15 -47 -10 -64 6 -8 8 -22 12 -30 9 -18 -7 -20 4 -7 24 7 12 12 12 31
0 19 -11 24 -11 32 3 12 18 51 14 68 -6z"/>
<path d="M1756 3521 c-8 -12 3 -41 15 -41 5 0 9 -6 9 -14 0 -8 19 -31 43 -51
25 -23 37 -39 30 -42 -7 -3 -13 -11 -13 -19 0 -8 -8 -14 -17 -14 -15 0 -16 2
-3 10 13 8 13 10 1 10 -21 0 -60 40 -54 55 9 26 -108 70 -154 58 -26 -6 -30
-25 -8 -46 8 -8 12 -17 9 -20 -4 -3 7 -19 24 -35 24 -23 29 -36 27 -68 -3 -61
-4 -62 -22 -67 -14 -3 -12 -6 10 -15 30 -13 31 -15 17 -42 -7 -12 -7 -28 0
-44 8 -23 7 -26 -11 -26 -12 0 -19 -5 -16 -12 2 -8 18 -12 43 -10 38 3 67 24
90 63 17 31 89 112 157 179 65 64 83 100 52 100 -9 0 -18 -7 -21 -15 -9 -23
-44 -18 -66 11 -11 14 -37 36 -57 50 -20 13 -46 31 -58 39 -12 10 -24 12 -27
6z m64 -201 c0 -5 -4 -10 -10 -10 -5 0 -10 5 -10 10 0 6 5 10 10 10 6 0 10 -4
10 -10z"/>
<path d="M1935 3440 c3 -5 11 -10 16 -10 6 0 7 5 4 10 -3 6 -11 10 -16 10 -6
0 -7 -4 -4 -10z"/>
<path d="M2200 3258 c0 -4 5 -8 10 -8 6 0 10 -4 10 -10 0 -5 -9 -10 -20 -10
-20 0 -32 -20 -46 -77 -5 -18 -4 -24 5 -19 6 4 11 1 11 -9 0 -9 -4 -14 -9 -11
-4 3 -3 -13 3 -35 l10 -40 17 33 c9 18 20 51 23 72 4 21 14 48 21 60 25 39 23
59 -7 60 -16 1 -28 -2 -28 -6z"/>
<path d="M2900 3260 c0 -5 -7 -10 -16 -10 -14 0 -14 -3 -4 -15 9 -11 16 -12
25 -5 10 8 15 6 20 -9 3 -12 10 -21 15 -21 4 0 3 16 -3 35 -9 31 -37 50 -37
25z"/>
<path d="M2985 3250 c-19 -8 -19 -9 3 -9 12 -1 22 4 22 9 0 6 -1 10 -2 9 -2 0
-12 -4 -23 -9z"/>
<path d="M2127 3109 c4 -13 8 -18 11 -10 2 7 -1 18 -6 23 -8 8 -9 4 -5 -13z"/>
<path d="M2770 3124 c0 -4 17 -24 38 -45 38 -40 72 -51 72 -24 0 8 -9 15 -19
15 -11 0 -22 4 -26 10 -8 14 -65 52 -65 44z"/>
<path d="M2890 3125 c0 -17 66 -75 85 -75 35 0 42 20 8 21 -23 1 -21 3 14 12
69 16 60 32 -18 30 -38 -1 -69 3 -69 8 0 5 -4 9 -10 9 -5 0 -10 -2 -10 -5z"/>
<path d="M2391 2861 c-45 -23 -66 -63 -49 -91 7 -11 21 -20 30 -20 20 0 24
-15 8 -25 -42 -26 84 -36 144 -11 39 16 76 65 79 103 2 25 -2 28 -44 34 -26 4
-56 12 -67 18 -28 15 -60 12 -101 -8z m89 -41 c0 -5 -4 -10 -10 -10 -5 0 -10
5 -10 10 0 6 5 10 10 10 6 0 10 -4 10 -10z m90 -13 c0 -29 -24 -63 -50 -70
-25 -6 -25 -2 0 30 11 14 20 34 20 44 0 11 7 19 15 19 9 0 15 -9 15 -23z"/>
<path d="M1810 2834 c0 -7 4 -15 9 -18 5 -3 12 -21 15 -39 11 -61 101 -113
145 -85 26 16 26 30 3 51 -24 22 -29 21 -35 -3 -3 -11 -11 -20 -17 -20 -9 0
-11 15 -7 54 4 39 2 58 -7 66 -19 15 -106 10 -106 -6z"/>
<path d="M1480 2733 c0 -11 -11 -31 -25 -44 -13 -13 -25 -30 -25 -36 0 -7 -4
-13 -10 -13 -5 0 -10 -5 -10 -11 0 -5 -14 -23 -30 -38 -17 -15 -27 -31 -23
-35 8 -7 9 -12 11 -53 2 -26 22 -32 22 -7 0 21 57 149 87 198 18 27 22 41 14
49 -8 8 -11 5 -11 -10z"/>
<path d="M1562 2698 c6 -18 28 -21 28 -4 0 9 -7 16 -16 16 -9 0 -14 -5 -12
-12z"/>
<path d="M1565 2660 c-3 -5 1 -10 9 -10 9 0 16 5 16 10 0 6 -4 10 -9 10 -6 0
-13 -4 -16 -10z"/>
<path d="M1576 2614 c-10 -25 -7 -34 9 -28 20 8 19 1 -4 -47 -11 -21 -15 -36
-9 -33 5 3 13 17 18 30 5 13 14 24 19 24 15 0 23 -73 12 -104 -15 -38 -14 -44
4 -19 10 14 22 20 31 16 13 -5 13 -7 2 -15 -10 -7 -9 -11 5 -19 17 -10 17 -12
2 -35 -9 -14 -14 -33 -12 -42 3 -12 6 -9 11 11 5 15 12 27 17 27 11 0 3 74
-10 98 -9 17 -11 24 -11 40 0 5 -13 24 -30 42 -16 18 -30 39 -30 46 0 20 -17
26 -24 8z"/>
<path d="M1602 2508 c-7 -7 -12 -21 -12 -31 0 -13 -5 -17 -16 -13 -8 3 -12 2
-9 -4 11 -18 24 -11 40 21 18 33 16 46 -3 27z"/>
<path d="M1540 2440 c20 -13 33 -13 25 0 -3 6 -14 10 -23 10 -15 0 -15 -2 -2
-10z"/>
<path d="M1545 2400 c3 -5 11 -10 16 -10 6 0 7 5 4 10 -3 6 -11 10 -16 10 -6
0 -7 -4 -4 -10z"/>
<path d="M1585 2350 c3 -5 14 -10 23 -10 15 0 15 2 2 10 -20 13 -33 13 -25 0z"/>
<path d="M1674 2325 c-21 -45 -11 -58 11 -16 9 18 20 29 25 26 6 -3 7 1 4 9
-10 25 -22 19 -40 -19z"/>
<path d="M2972 2333 c-10 -16 -17 -33 -15 -39 2 -7 -8 -21 -22 -32 -21 -16
-22 -21 -9 -24 24 -5 26 -115 2 -122 -10 -2 -18 -12 -18 -23 0 -10 -14 -29
-31 -42 -17 -14 -35 -35 -40 -48 -5 -13 -16 -23 -24 -23 -9 0 -31 -11 -48 -23
-35 -26 -129 -68 -157 -70 -10 -1 -16 -7 -13 -14 3 -7 0 -13 -6 -13 -6 0 -20
-8 -31 -17 -11 -10 -39 -18 -63 -20 -69 -3 -97 -7 -97 -14 0 -3 -12 -5 -27 -4
-41 3 -43 4 -43 20 0 8 -6 12 -14 9 -8 -3 0 11 17 31 44 51 150 155 158 155 4
0 9 9 12 20 3 13 0 20 -8 20 -7 0 -21 3 -31 7 -13 5 -16 3 -12 -9 4 -10 1 -15
-10 -14 -9 0 -17 -6 -17 -15 0 -22 -65 -76 -101 -84 -16 -4 -53 -16 -82 -26
-64 -23 -66 -23 -58 -4 3 8 1 15 -4 15 -6 0 -10 -7 -10 -15 0 -8 -8 -15 -17
-14 -11 0 -13 3 -5 6 6 2 10 9 6 14 -9 15 25 22 41 9 12 -10 15 -10 15 3 0 8
15 21 33 27 l32 13 -30 7 c-16 4 -24 8 -17 9 26 2 0 21 -29 21 l-29 0 25 47
c24 47 33 115 17 139 -4 7 -31 20 -60 29 -46 15 -66 16 -138 8 -95 -12 -110
-20 -124 -71 -8 -30 -6 -42 16 -81 13 -26 40 -63 58 -83 l34 -37 -31 6 c-18 3
-37 10 -43 14 -6 5 -14 6 -18 2 -4 -4 -9 3 -13 15 -8 34 -20 26 -27 -18 -3
-22 -11 -40 -16 -40 -5 0 -32 9 -59 20 l-50 19 -6 -30 c-4 -18 -2 -36 4 -42 8
-8 11 -6 11 9 0 10 4 15 8 9 4 -5 17 -11 30 -13 12 -2 35 -10 50 -18 31 -16
42 -18 42 -6 0 5 -30 19 -67 32 -37 13 -62 25 -56 27 9 3 56 -11 106 -32 13
-5 17 -2 17 11 0 11 4 24 8 31 4 6 7 -15 7 -47 l0 -58 -28 15 c-16 8 -36 12
-45 10 -13 -3 -9 -7 13 -17 17 -7 25 -14 18 -17 -7 -2 -21 0 -32 6 -29 16 -34
14 -29 -14 3 -14 1 -28 -3 -31 -9 -5 -13 23 -10 59 4 32 -18 17 -22 -15 -4
-32 -4 -32 -5 5 -1 20 -7 37 -13 37 -6 0 -9 -7 -5 -15 3 -8 1 -15 -5 -15 -6 0
-9 24 -8 60 1 33 -1 63 -4 67 -7 6 -11 -43 -7 -80 1 -17 0 -17 -29 -2 -17 8
-32 23 -33 33 0 9 -2 23 -2 29 -1 7 -18 24 -39 38 -39 27 -49 42 -21 31 14 -5
15 -4 4 9 -7 8 -17 15 -23 15 -16 0 -67 51 -67 67 0 7 -11 13 -25 13 -22 0
-27 -5 -24 -26 0 -4 -5 -10 -12 -15 -8 -5 5 -13 37 -22 l49 -16 -40 -1 -40 -2
53 -10 c28 -5 52 -14 52 -20 0 -6 -6 -8 -13 -5 -8 3 -20 1 -28 -3 -9 -6 -20
-3 -33 8 -18 16 -18 16 -5 -5 11 -18 11 -25 1 -35 -18 -18 -16 -52 3 -44 8 3
15 1 15 -4 0 -6 -7 -10 -15 -10 -14 0 -33 -52 -27 -72 1 -5 -6 -8 -16 -8 -14
0 -15 -2 -2 -10 11 -7 19 -5 27 7 7 9 10 20 7 24 -7 12 18 49 33 49 7 0 12 -3
12 -7 -1 -5 -1 -19 1 -33 1 -23 2 -24 11 -5 6 13 7 -8 3 -60 -4 -61 -2 -76 6
-62 6 9 9 21 6 26 -4 5 -2 20 3 33 8 19 10 14 10 -28 1 -33 -4 -53 -11 -56
-26 -9 -113 0 -110 11 1 6 -5 14 -14 18 -26 10 5 23 41 17 23 -4 27 -3 15 5
-8 6 -35 11 -59 11 -38 0 -42 -2 -31 -15 7 -9 10 -18 7 -21 -10 -10 -47 59
-47 89 0 24 4 27 33 28 28 2 29 2 6 6 -27 4 -36 20 -44 72 -3 19 0 22 16 18
15 -4 19 0 18 16 0 12 -3 16 -6 10 -8 -22 -33 -14 -44 14 -13 35 3 52 27 29 9
-9 19 -14 23 -11 3 4 -2 11 -12 16 -9 6 -15 15 -11 21 4 6 -1 8 -14 4 -18 -6
-21 0 -31 57 -6 35 -11 87 -11 115 l0 51 -65 -45 c-36 -25 -63 -50 -60 -54 3
-5 -4 -14 -15 -20 -11 -6 -20 -17 -20 -24 0 -14 -31 -31 -72 -40 -16 -4 -28
-11 -28 -17 0 -6 9 -9 19 -6 21 5 20 2 -1 -55 -11 -31 -28 -37 -28 -12 0 10
-6 14 -15 11 -23 -9 -28 11 -5 23 11 6 20 15 20 21 0 16 -48 -26 -200 -174
-178 -173 -283 -271 -348 -325 -29 -24 -50 -48 -47 -53 4 -5 -2 -6 -12 -2 -10
3 -16 3 -13 0 3 -3 -47 -61 -112 -128 -181 -185 -230 -282 -267 -531 -18 -119
-21 -183 -21 -497 l0 -361 1881 0 1882 0 -7 68 c-4 37 -14 137 -21 224 -8 86
-20 180 -26 210 -13 59 -88 266 -120 331 -11 23 -45 95 -75 160 -53 117 -54
120 -54 212 l0 93 -97 73 c-154 115 -295 236 -327 280 -24 35 -33 40 -58 37
-29 -5 -30 -4 -11 11 22 18 22 63 1 88 -10 13 -10 17 0 20 15 6 16 42 2 79 -8
19 -8 29 0 34 6 4 13 23 17 43 4 29 2 38 -11 43 -11 4 -13 10 -8 18 15 18 21
56 10 62 -5 3 -7 17 -4 30 4 13 2 24 -3 24 -5 0 -12 7 -15 16 -4 11 -2 15 8
11 15 -6 16 -2 31 146 3 26 3 47 1 47 -3 0 -13 -12 -24 -27z m-42 -301 c0 -15
-2 -15 -10 -2 -13 20 -13 33 0 25 6 -3 10 -14 10 -23z m-1355 -31 c-10 -9 -55
-9 -61 0 -3 6 9 9 30 7 19 -1 33 -4 31 -7z m-1 -23 c31 -1 56 -6 56 -10 0 -5
-3 -7 -8 -4 -4 2 -23 1 -42 -4 l-35 -8 32 -1 c31 -1 59 -21 29 -21 -9 0 -16
-4 -16 -9 0 -5 6 -9 13 -8 6 0 21 -1 32 -2 17 -3 17 -4 -5 -11 l-25 -7 25 -11
c16 -7 19 -11 8 -11 -11 -1 -15 -7 -11 -23 3 -17 2 -19 -5 -9 -6 8 -15 10 -23
5 -12 -6 -12 -5 -1 8 7 8 10 23 6 32 -8 20 -24 11 -24 -14 0 -10 -7 -21 -16
-24 -23 -9 -28 -2 -10 13 8 7 12 20 9 28 -4 11 -2 14 5 9 8 -5 12 0 12 13 0
28 -18 27 -29 -1 l-8 -22 -5 22 c-4 14 -2 20 4 15 7 -3 8 -1 4 5 -4 7 -15 12
-26 12 -18 0 -30 19 -30 47 0 12 3 13 14 4 8 -6 39 -12 70 -13z m1293 0 c-3
-8 -6 -5 -6 6 -1 11 2 17 5 13 3 -3 4 -12 1 -19z m-738 -55 c3 -2 0 -8 -6 -14
-8 -8 -23 -5 -54 10 l-44 20 50 -6 c28 -3 52 -8 54 -10z m-199 -44 c0 -22 -4
-38 -8 -35 -8 5 -4 76 4 76 2 0 4 -18 4 -41z m65 -54 c-5 -58 -3 -85 4 -85 12
0 14 9 11 56 -1 18 4 35 10 39 8 5 10 -14 8 -67 l-3 -74 -28 4 c-15 3 -30 9
-34 15 -4 6 4 7 23 3 21 -6 26 -4 18 4 -12 13 -114 41 -124 35 -4 -2 -7 2 -7
10 0 9 5 11 16 6 25 -13 94 -23 87 -13 -3 5 -34 17 -70 27 -36 10 -67 24 -70
31 -5 12 30 8 49 -6 19 -14 55 -21 55 -11 0 6 -14 14 -32 19 -17 4 -34 14 -36
21 -3 9 5 8 31 -3 35 -14 36 -14 46 12 8 24 9 22 10 -20 1 -50 21 -69 21 -20
0 34 11 102 17 102 2 0 1 -38 -2 -85z m772 43 c-3 -8 -6 -5 -6 6 -1 11 2 17 5
13 3 -3 4 -12 1 -19z m-719 -4 c12 -4 22 -10 22 -14 0 -10 -49 0 -56 11 -6 10
2 11 34 3z m-361 -20 c-3 -3 -12 -4 -19 -1 -8 3 -5 6 6 6 11 1 17 -2 13 -5z
m1200 -31 c-3 -10 -5 -4 -5 12 0 17 2 24 5 18 2 -7 2 -21 0 -30z m-1070 -20
c-3 -10 -5 -2 -5 17 0 19 2 27 5 18 2 -10 2 -26 0 -35z m-148 -13 c0 -9 -5 -5
-13 9 -10 18 -15 20 -19 10 -4 -11 -6 -10 -6 3 -1 9 5 18 12 21 12 4 25 -17
26 -43z m421 35 c23 -9 28 -14 15 -14 -11 0 -31 6 -45 14 -31 18 -16 18 30 0z
m767 -7 c-3 -8 -6 -5 -6 6 -1 11 2 17 5 13 3 -3 4 -12 1 -19z m89 1 c3 -5 -6
-9 -20 -9 -16 0 -26 6 -26 14 0 15 36 11 46 -5z m-1369 -11 c-3 -8 -6 -5 -6 6
-1 11 2 17 5 13 3 -3 4 -12 1 -19z m1263 -9 c0 -6 -4 -7 -10 -4 -5 3 -10 11
-10 16 0 6 5 7 10 4 6 -3 10 -11 10 -16z m-1140 -22 c0 -5 -4 -5 -10 -2 -5 3
-10 14 -10 23 0 15 2 15 10 2 5 -8 10 -19 10 -23z m45 23 c3 -5 1 -10 -4 -10
-6 0 -11 5 -11 10 0 6 2 10 4 10 3 0 8 -4 11 -10z m380 -16 l40 -15 -37 6
c-49 8 -51 -12 -3 -21 19 -3 38 -10 41 -16 3 -5 -6 -6 -23 -2 -15 4 -32 7 -38
8 -5 0 -11 -25 -13 -56 -3 -55 11 -80 21 -40 3 9 5 2 6 -17 1 -28 -1 -32 -13
-22 -8 7 -27 16 -43 21 -21 6 -23 8 -8 9 19 1 21 8 24 78 2 69 1 75 -13 64
-13 -11 -16 -11 -16 3 0 20 23 20 75 0z m750 7 c3 -5 1 -12 -5 -16 -5 -3 -10
1 -10 9 0 18 6 21 15 7z m-1302 -40 c-3 -21 0 -47 6 -57 8 -15 10 -9 11 34 0
28 5 52 10 52 6 0 8 -20 4 -53 -5 -39 -3 -57 8 -68 8 -8 19 -23 26 -34 10 -17
11 -11 12 38 0 77 18 64 19 -14 l1 -61 -43 6 c-23 4 -46 11 -52 17 -6 6 2 7
23 3 20 -4 32 -3 32 4 0 6 -21 14 -47 17 -67 9 -75 13 -28 14 53 2 26 21 -29
21 -30 0 -37 -3 -32 -15 3 -8 1 -15 -4 -15 -6 0 -10 6 -10 13 0 6 -12 23 -27
37 l-26 25 66 3 c66 3 67 3 67 31 0 24 7 41 16 41 1 0 0 -17 -3 -39z m67 -2
c0 -11 -4 -17 -10 -14 -5 3 -10 15 -10 26 0 11 5 17 10 14 6 -3 10 -15 10 -26z
m125 -14 c4 -21 3 -25 -3 -15 -15 24 -26 67 -14 55 6 -5 13 -23 17 -40z m435
35 c0 -5 -8 -10 -17 -10 -15 0 -16 2 -3 10 19 12 20 12 20 0z m-340 -20 c0 -5
-4 -10 -10 -10 -5 0 -10 5 -10 10 0 6 5 10 10 10 6 0 10 -4 10 -10z m990 0 c0
-5 -2 -10 -4 -10 -3 0 -8 5 -11 10 -3 6 -1 10 4 10 6 0 11 -4 11 -10z m90 -15
c0 -22 -4 -25 -32 -24 -31 2 -31 2 -5 6 25 4 40 23 17 23 -5 0 -10 5 -10 10 0
6 7 10 15 10 9 0 15 -9 15 -25z m-684 -22 c-3 -3 -13 -2 -23 2 -17 8 -17 8 0
12 9 3 18 10 18 16 1 7 3 4 6 -6 3 -10 2 -21 -1 -24z m567 14 c3 -8 1 -20 -4
-28 -6 -10 -9 -7 -9 14 0 29 5 35 13 14z m-763 -17 c0 -11 -4 -20 -10 -20 -5
0 -10 9 -10 20 0 11 5 20 10 20 6 0 10 -9 10 -20z m70 -4 c0 -14 -4 -28 -10
-31 -6 -4 -10 7 -10 24 0 17 5 31 10 31 6 0 10 -11 10 -24z m514 8 c5 -14 4
-15 -9 -4 -17 14 -19 20 -6 20 5 0 12 -7 15 -16z m226 6 c0 -5 -7 -10 -16 -10
-8 0 -12 5 -9 10 3 6 10 10 16 10 5 0 9 -4 9 -10z m-1031 -50 c0 -9 -4 -8 -9
5 -5 11 -9 27 -9 35 0 9 4 8 9 -5 5 -11 9 -27 9 -35z m464 3 c7 -35 2 -39 -23
-23 -10 6 -11 10 -2 10 6 0 12 6 12 14 0 8 -9 12 -22 11 -13 -1 -15 0 -5 2 9
2 17 12 17 21 0 26 17 1 23 -35z m423 21 c36 -28 43 -44 19 -44 -8 0 -15 -4
-15 -10 0 -6 9 -6 23 -1 14 6 21 16 19 27 -2 18 -2 18 8 2 8 -13 25 -18 58
-19 28 -1 36 -4 20 -6 -18 -3 -25 -9 -21 -19 3 -10 -2 -14 -18 -14 -13 0 -34
-3 -46 -6 -21 -6 -21 -6 -2 -25 14 -14 33 -19 74 -19 30 0 55 -4 55 -10 0 -6
-23 -9 -55 -7 -31 2 -58 0 -61 -5 -3 -4 -1 -8 3 -8 5 0 14 -10 22 -22 13 -22
13 -23 -6 -5 -11 9 -24 17 -30 17 -6 0 -10 11 -9 25 2 13 -1 22 -6 19 -5 -3
-7 -13 -6 -22 2 -11 -5 -18 -19 -20 -16 -2 -23 -11 -24 -25 0 -12 -3 -16 -6
-10 -3 10 -8 9 -20 -2 -19 -19 -30 -12 -30 20 0 13 3 22 8 19 5 -3 6 2 3 10
-3 9 -10 16 -16 16 -5 0 -7 -4 -4 -9 3 -5 -1 -14 -8 -20 -11 -10 -24 -9 -55 0
-23 7 -43 10 -46 8 -2 -3 0 -20 4 -39 4 -20 4 -44 0 -55 -6 -16 -8 -12 -8 15
-1 19 -5 50 -11 68 -8 29 -7 33 7 28 9 -4 20 -1 25 6 12 20 10 26 -12 33 -11
3 -20 11 -20 16 0 6 13 2 30 -8 23 -13 32 -15 42 -5 7 7 21 12 32 12 18 0 17
-1 -4 -20 l-23 -20 22 0 c12 0 24 7 27 15 4 8 22 22 41 31 22 11 32 22 29 31
-3 7 1 16 9 20 12 4 13 9 4 19 -16 19 -30 18 -22 -2 5 -15 3 -15 -20 1 -33 21
-35 29 -5 19 20 -6 21 -5 9 10 -20 24 -4 19 35 -10z m-1094 -9 c-2 -14 -6 -25
-8 -25 -2 0 -4 11 -4 25 0 14 4 25 9 25 4 0 6 -11 3 -25z m578 15 c12 -8 11
-10 -7 -10 -13 0 -23 5 -23 10 0 13 11 13 30 0z m550 0 c0 -5 -2 -10 -4 -10
-3 0 -8 5 -11 10 -3 6 -1 10 4 10 6 0 11 -4 11 -10z m-793 -6 c-3 -3 -12 -4
-19 -1 -8 3 -5 6 6 6 11 1 17 -2 13 -5z m-711 -36 c-8 -39 -22 -56 -36 -42
-13 13 10 74 28 74 11 0 13 -8 8 -32z m769 22 c13 -5 14 -9 5 -9 -8 0 -24 4
-35 9 -13 5 -14 9 -5 9 8 0 24 -4 35 -9z m133 -50 c-1 -33 -7 -60 -12 -60 -4
0 -6 14 -2 31 3 17 6 44 6 60 0 16 3 29 6 29 3 0 4 -27 2 -60z m732 56 c0 -9
-40 -13 -46 -5 -3 5 6 9 20 9 14 0 26 -2 26 -4z m-1193 -43 c-3 -10 -5 -4 -5
12 0 17 2 24 5 18 2 -7 2 -21 0 -30z m513 21 c0 -2 -7 -4 -15 -4 -8 0 -15 4
-15 10 0 5 7 7 15 4 8 -4 15 -8 15 -10z m129 -26 c1 -5 -3 -8 -9 -8 -5 0 -10
12 -9 28 0 24 1 25 9 7 5 -11 9 -23 9 -27z m321 32 c8 -5 11 -10 5 -10 -5 0
-17 5 -25 10 -8 5 -10 10 -5 10 6 0 17 -5 25 -10z m-287 -77 c5 -25 3 -33 -8
-33 -7 0 -17 5 -20 10 -3 6 -2 10 4 10 6 0 8 18 6 43 -5 46 7 26 18 -30z
m-383 36 c0 -6 -4 -7 -10 -4 -5 3 -10 11 -10 16 0 6 5 7 10 4 6 -3 10 -11 10
-16z m415 -44 c6 -30 5 -37 -4 -29 -7 6 -14 31 -16 55 -5 53 10 34 20 -26z
m50 55 c25 -9 55 -33 55 -43 0 -4 -46 -2 -70 3 -3 0 4 7 14 15 20 15 20 15 0
16 -10 1 -24 1 -31 0 -6 -1 -14 3 -18 9 -8 13 16 13 50 0z m-264 -70 c2 -59 1
-65 -17 -62 -10 2 -26 8 -34 14 -11 7 -7 8 13 3 15 -3 27 -1 27 5 0 5 -9 10
-19 10 -11 0 -23 5 -27 11 -5 9 1 10 20 5 24 -6 27 -4 26 16 -3 34 -1 72 4 67
2 -2 5 -33 7 -69z m-674 38 c-3 -8 -6 -5 -6 6 -1 11 2 17 5 13 3 -3 4 -12 1
-19z m768 12 l20 -9 -20 0 c-11 0 -29 4 -40 9 l-20 9 20 0 c11 0 29 -4 40 -9z
m-725 -10 c0 -5 -4 -10 -9 -10 -6 0 -13 5 -16 10 -3 6 1 10 9 10 9 0 16 -4 16
-10z m137 -12 c-3 -8 -6 -5 -6 6 -1 11 2 17 5 13 3 -3 4 -12 1 -19z m532 -48
c-2 -77 -15 -69 -18 10 -1 41 2 59 9 55 6 -4 10 -33 9 -65z m210 -4 c7 -50 6
-56 -10 -56 -22 0 -34 17 -17 23 8 3 3 9 -12 15 l-25 11 28 0 c27 1 28 3 21
39 -4 20 -3 34 0 30 4 -3 11 -31 15 -62z m441 44 c0 -18 -4 -20 -42 -14 -53 8
-61 14 -20 14 18 0 32 5 32 10 0 6 7 10 15 10 8 0 15 -9 15 -20z m-608 -9 c-6
-3 -10 -39 -9 -79 2 -83 -9 -98 -15 -19 -5 83 1 117 18 110 9 -3 11 -8 6 -12z
m-599 -11 c5 -4 -21 -7 -58 -5 -53 1 -65 -1 -61 -12 3 -8 2 -11 -3 -8 -6 3 -9
13 -8 23 1 14 10 17 61 14 34 -2 65 -7 69 -12z m206 11 c12 -8 13 -16 3 -49
-15 -50 -15 -52 2 -52 8 0 18 -4 21 -10 4 -7 -2 -7 -18 -1 -14 6 -28 7 -32 3
-5 -4 -5 4 -1 18 15 56 19 93 9 87 -6 -4 -13 -19 -16 -34 -3 -16 -10 -45 -15
-65 -6 -22 -6 -38 -1 -38 5 0 9 4 9 8 0 11 69 2 76 -9 3 -6 -12 -7 -37 -3 -31
5 -40 4 -35 -4 8 -14 -3 -15 -23 -3 -11 7 -12 17 -2 56 7 26 10 49 7 52 -8 9
-37 -97 -31 -116 5 -16 1 -19 -19 -17 -44 5 -18 -11 29 -18 47 -8 63 -33 26
-43 -24 -6 -30 -21 -20 -53 l7 -25 1 27 c1 39 19 44 24 6 3 -29 4 -28 5 9 1
23 7 45 12 48 12 7 12 -41 1 -70 -5 -11 -14 -20 -21 -20 -7 0 -15 -6 -18 -13
-2 -7 4 -11 15 -10 35 3 54 -2 48 -12 -3 -5 3 -10 14 -10 12 0 22 -4 22 -10 1
-5 2 -14 3 -19 2 -19 16 -24 16 -6 0 18 1 18 15 -1 14 -18 14 -17 16 16 1 22
3 28 6 15 3 -11 10 -26 16 -33 8 -10 7 -16 -3 -22 -8 -5 -11 -12 -7 -16 4 -4
13 1 21 11 12 17 16 18 32 5 16 -14 17 -13 10 5 -5 11 -11 31 -13 45 -5 24 -5
25 11 5 8 -11 16 -16 16 -11 0 5 7 3 15 -4 10 -8 31 -10 66 -5 35 5 49 4 45
-3 -3 -6 -2 -13 3 -17 6 -3 13 -26 17 -50 6 -40 9 -45 33 -45 20 0 23 -2 11
-10 -32 -21 -47 -11 -62 43 -12 39 -16 45 -17 25 0 -16 -5 -28 -10 -28 -5 0
-8 -24 -5 -52 4 -49 2 -50 -13 -8 -4 12 -7 11 -13 -5 -6 -18 -8 -16 -14 11 -6
26 -11 30 -43 31 -25 1 -32 -2 -22 -8 8 -5 22 -9 31 -9 11 0 21 -13 27 -37 13
-47 14 -63 1 -43 -5 8 -10 25 -10 38 0 21 -14 30 -23 15 -2 -5 -3 -3 -1 3 3
14 -44 25 -51 13 -3 -4 5 -10 17 -12 22 -4 22 -4 -2 -6 -14 -1 -32 -6 -40 -11
-11 -7 0 -10 38 -10 35 0 51 -4 47 -11 -4 -6 -26 -8 -51 -6 -24 3 -44 1 -44
-4 0 -5 19 -9 42 -9 50 0 42 -14 -10 -16 -65 -2 -73 -4 -68 -13 3 -5 22 -9 42
-9 58 0 52 -12 -7 -13 -30 -1 -57 -1 -61 0 -5 0 -8 -3 -8 -9 0 -5 18 -10 40
-10 22 0 40 -4 40 -8 0 -4 -12 -7 -27 -6 -47 2 -65 -6 -52 -22 8 -10 8 -14 0
-14 -6 0 -11 -4 -11 -10 0 -5 10 -10 22 -10 29 0 12 -15 -18 -15 -13 -1 -24 4
-24 10 0 5 -8 -3 -19 -20 -13 -21 -15 -34 -8 -43 7 -9 6 -11 -7 -6 -21 8 -20
36 3 65 10 13 19 26 19 29 3 31 43 110 53 105 4 -3 5 4 2 15 -3 11 -1 20 5 20
6 0 12 -8 14 -17 4 -17 2 71 -1 92 -1 6 -7 -1 -13 -15 -6 -15 -12 -20 -15 -12
-7 19 -23 14 -23 -8 0 -11 -4 -20 -10 -20 -5 0 -10 5 -10 11 0 5 -4 8 -9 5
-14 -9 -42 5 -34 17 3 6 1 7 -5 3 -16 -9 -63 4 -56 16 4 6 -2 8 -15 3 -11 -3
-21 -2 -21 3 0 5 -10 13 -22 17 l-23 7 25 9 c22 8 21 8 -7 4 -18 -2 -33 0 -33
5 0 6 5 10 10 10 6 0 10 5 10 10 0 7 -6 7 -20 0 -20 -11 -60 5 -60 23 0 5 -7
6 -16 3 -13 -5 -15 -2 -11 14 4 17 2 18 -15 9 -17 -9 -19 -8 -13 10 6 19 5 19
-25 5 -17 -9 -38 -13 -48 -9 -14 5 -11 11 21 37 20 16 37 35 37 42 0 7 14 22
30 34 34 26 39 43 11 35 -11 -3 -30 2 -43 11 -12 9 -30 16 -40 16 -9 0 -21 7
-26 16 -5 9 -13 14 -18 12 -5 -1 -12 16 -15 39 -4 31 -2 44 9 48 9 3 12 13 9
25 -3 11 -4 20 -2 20 2 0 10 2 17 5 9 4 27 -12 48 -42 66 -94 120 -139 120
-98 0 8 5 15 10 15 18 0 11 29 -10 40 -28 15 -25 28 4 23 16 -3 23 -10 19 -19
-3 -10 2 -14 18 -13 13 0 18 3 12 6 -20 7 -15 23 6 23 11 0 23 5 26 10 4 7 -8
10 -34 9 -22 -2 -44 0 -47 4 -4 4 23 7 59 7 37 0 67 4 67 9 0 12 62 71 74 71
6 0 17 -4 25 -9z m666 -11 c3 -6 -4 -10 -18 -10 -24 0 -24 -1 -19 -75 3 -56 1
-75 -8 -75 -9 0 -11 11 -6 39 3 21 2 59 -3 85 -8 46 -8 46 20 46 15 0 31 -4
34 -10z m-66 -62 c1 -10 -3 -18 -9 -18 -5 0 -10 19 -9 43 1 36 2 38 9 17 4
-14 8 -33 9 -42z m-173 44 c-2 -4 -6 -36 -8 -70 -4 -86 -20 -79 -17 8 2 53 6
70 16 70 8 0 12 -4 9 -8z m-706 -13 c0 -5 -4 -8 -9 -4 -5 3 -12 -3 -14 -12 -4
-14 -5 -13 -6 5 -1 13 5 22 14 22 8 0 15 -5 15 -11z m90 1 c21 -7 19 -8 -17
-9 -24 -1 -43 4 -43 9 0 12 24 12 60 0z m225 1 c3 -5 1 -12 -5 -16 -5 -3 -10
1 -10 9 0 18 6 21 15 7z m442 3 c-3 -3 -12 -4 -19 -1 -8 3 -5 6 6 6 11 1 17
-2 13 -5z m517 -23 c3 -5 -1 -11 -9 -15 -9 -3 -15 0 -15 9 0 16 16 20 24 6z
m-514 -11 c13 -9 13 -10 0 -9 -8 0 -24 4 -35 9 l-20 9 20 0 c11 0 27 -4 35 -9z
m-738 -35 c2 -19 0 -31 -4 -27 -13 13 -20 62 -9 62 5 0 11 -16 13 -35z m997
19 c2 -2 -10 -4 -27 -4 -18 0 -32 5 -32 10 0 9 47 4 59 -6z m151 6 c0 -5 -4
-10 -9 -10 -6 0 -13 5 -16 10 -3 6 1 10 9 10 9 0 16 -4 16 -10z m-440 -76 c0
-43 -4 -73 -9 -70 -5 4 -8 14 -6 24 2 9 4 41 4 70 1 28 3 52 6 52 3 0 5 -34 5
-76z m-109 48 c-7 -2 -18 1 -23 6 -8 8 -4 9 13 5 13 -4 18 -8 10 -11z m180 3
l34 -15 -35 3 c-32 2 -35 0 -32 -23 5 -32 -2 -24 -16 18 -13 38 -4 41 49 17z
m339 1 c0 -2 -7 -7 -16 -10 -8 -3 -12 -2 -9 4 6 10 25 14 25 6z m40 -6 c12 -8
11 -10 -7 -10 -13 0 -23 5 -23 10 0 13 11 13 30 0z m-305 -10 c3 -5 1 -10 -4
-10 -6 0 -11 5 -11 10 0 6 2 10 4 10 3 0 8 -4 11 -10z m170 0 c4 -6 -5 -7 -24
-4 -27 6 -29 4 -25 -17 4 -21 3 -22 -5 -4 -4 11 -7 23 -4 28 6 10 51 9 58 -3z
m-593 -30 c-2 -16 -8 -30 -13 -30 -11 0 -11 3 1 34 13 34 18 33 12 -4z m648
18 c0 -11 -28 -10 -35 1 -3 6 4 9 15 8 11 -1 20 -5 20 -9z m-689 -21 c-10 -9
-11 -8 -5 6 3 10 9 15 12 12 3 -3 0 -11 -7 -18z m420 13 c10 0 19 -5 19 -10 0
-12 -50 -2 -65 13 -7 7 -4 8 8 3 10 -3 27 -6 38 -6z m136 -32 c-3 -7 -5 -2 -5
12 0 14 2 19 5 13 2 -7 2 -19 0 -25z m133 11 c0 -5 -10 -7 -22 -5 -13 3 -26 5
-30 5 -5 1 -8 5 -8 9 0 5 14 7 30 4 17 -2 30 -8 30 -13z m-720 -6 c0 -11 -3
-14 -8 -7 -4 6 -14 14 -22 17 -10 4 -8 6 8 6 15 1 22 -5 22 -16z m426 -54 c-6
-70 -16 -74 -16 -6 0 33 4 57 10 57 7 0 9 -19 6 -51z m93 35 c2 -2 -10 -4 -27
-4 -21 0 -32 -5 -32 -14 0 -8 -4 -17 -9 -21 -5 -3 -9 8 -9 25 1 29 2 30 37 24
20 -4 38 -8 40 -10z m98 -36 c-2 -13 -4 -5 -4 17 -1 22 1 32 4 23 2 -10 2 -28
0 -40z m-231 -36 c-13 -12 -17 8 -9 44 l8 39 3 -39 c2 -21 1 -41 -2 -44z m329
68 c3 -5 1 -10 -4 -10 -6 0 -11 5 -11 10 0 6 2 10 4 10 3 0 8 -4 11 -10z
m-681 -42 c6 -5 3 -8 -10 -8 -18 0 -20 4 -16 28 5 22 7 24 10 7 2 -11 9 -23
16 -27z m18 20 c-7 -7 -12 -8 -12 -2 0 6 3 14 7 17 3 4 9 5 12 2 2 -3 -1 -11
-7 -17z m538 -3 c0 -10 -9 -15 -27 -14 -24 2 -25 2 -5 6 12 2 22 9 22 14 0 5
2 9 5 9 3 0 5 -7 5 -15z m-487 -2 c-7 -2 -19 -2 -25 0 -7 3 -2 5 12 5 14 0 19
-2 13 -5z m424 -7 c-4 -9 3 -16 19 -20 35 -9 30 -23 -7 -18 -24 4 -30 9 -26
23 3 10 0 20 -7 23 -6 2 -3 5 8 5 12 1 16 -4 13 -13z m140 -8 c-3 -8 -6 -5 -6
6 -1 11 2 17 5 13 3 -3 4 -12 1 -19z m-1327 -14 c0 -8 -4 -12 -10 -9 -5 3 -10
13 -10 21 0 8 5 12 10 9 6 -3 10 -13 10 -21z m1390 22 c0 -11 -19 -15 -25 -6
-3 5 1 10 9 10 9 0 16 -2 16 -4z m-783 -28 c-3 -8 -6 -5 -6 6 -1 11 2 17 5 13
3 -3 4 -12 1 -19z m143 6 c0 -2 -9 -4 -20 -4 -11 0 -20 4 -20 9 0 5 9 7 20 4
11 -3 20 -7 20 -9z m404 -41 c-7 -78 -14 -80 -14 -5 0 34 4 62 10 62 6 0 7
-23 4 -57z m-43 -16 c-13 -13 -14 5 -3 43 l7 25 3 -29 c2 -16 -1 -33 -7 -39z
m193 48 c-7 -17 -54 -21 -54 -4 0 6 9 9 20 6 11 -3 20 -1 20 4 0 5 4 9 10 9 5
0 7 -7 4 -15z m76 -1 c0 -2 -9 -4 -20 -4 -11 0 -20 4 -20 9 0 5 9 7 20 4 11
-3 20 -7 20 -9z m-800 -14 c0 -11 -4 -20 -10 -20 -5 0 -10 9 -10 20 0 11 5 20
10 20 6 0 10 -9 10 -20z m135 0 c8 -13 -15 -13 -35 0 -12 8 -11 10 7 10 12 0
25 -4 28 -10z m41 -8 c7 -5 6 -19 -3 -47 l-12 -40 1 35 c1 19 -1 41 -6 48 -8
13 3 16 20 4z m221 -17 c7 -11 12 -27 12 -35 0 -8 -7 -2 -15 13 -22 40 -27 28
-9 -18 23 -54 12 -54 -14 0 -21 46 -38 61 -26 25 5 -15 3 -18 -9 -14 -21 8
-20 -4 5 -60 11 -26 18 -52 16 -59 -2 -7 -10 8 -17 32 -8 23 -19 45 -26 48 -9
3 -11 15 -7 35 4 20 1 33 -8 40 -10 7 -8 8 9 3 12 -4 22 -2 22 4 0 18 55 7 67
-14z m213 -24 c0 -28 -4 -52 -8 -55 -5 -3 -8 19 -8 49 1 30 4 55 9 55 4 0 7
-22 7 -49z m60 29 c12 -8 11 -10 -7 -10 -12 0 -23 -6 -25 -12 -3 -7 -7 -2 -10
10 -7 24 14 30 42 12z m-619 -35 c5 4 14 3 21 -1 8 -5 6 -10 -8 -15 -31 -12
-42 -10 -39 9 2 9 4 24 6 32 1 8 4 5 6 -8 2 -12 9 -20 14 -17z m94 10 c0 -11
-7 -20 -15 -20 -9 0 -17 -13 -21 -35 l-6 -35 -2 43 c-1 33 2 42 16 42 21 0 6
16 -22 23 -11 3 -4 5 15 4 28 -2 35 -6 35 -22z m-1802 -38 c-5 -31 -9 -38 -27
-35 -29 4 -32 42 -6 68 28 28 41 15 33 -33z m1953 42 c4 -7 -1 -16 -10 -21 -9
-5 -16 -16 -16 -23 0 -8 -5 -15 -11 -15 -5 0 -7 5 -4 10 4 6 -6 10 -22 10 -27
1 -27 1 -8 15 11 8 25 19 30 24 14 14 32 13 41 0z m164 -9 c0 -5 -10 -10 -22
-9 -22 0 -22 1 -3 9 11 5 21 9 23 9 1 1 2 -3 2 -9z m220 -6 c0 -2 -7 -4 -15
-4 -8 0 -15 4 -15 10 0 5 7 7 15 4 8 -4 15 -8 15 -10z m-43 -61 c-3 -10 -5 -2
-5 17 0 19 2 27 5 18 2 -10 2 -26 0 -35z m843 2 c0 -19 -5 -37 -11 -40 -17
-11 -23 3 -9 20 7 9 10 25 6 41 -5 17 -3 23 4 19 5 -3 10 -21 10 -40z m-1249
25 c6 0 7 -4 4 -10 -10 -16 -45 -12 -45 6 0 11 5 14 16 10 9 -3 20 -6 25 -6z
m204 0 c-3 -5 -11 -10 -16 -10 -6 0 -7 5 -4 10 3 6 11 10 16 10 6 0 7 -4 4
-10z m252 4 c-3 -3 -12 -4 -19 -1 -8 3 -5 6 6 6 11 1 17 -2 13 -5z m18 -36 c6
-4 2 -8 -7 -8 -10 0 -18 7 -18 17 0 9 3 12 8 7 4 -5 12 -12 17 -16z m-379 -49
c3 -39 3 -40 -5 -14 -24 77 -24 80 -12 69 7 -6 14 -31 17 -55z m1092 53 c15
-10 5 -45 -12 -39 -13 4 -21 47 -9 47 4 0 14 -4 21 -8z m-991 -8 c-3 -3 -12
-4 -19 -1 -8 3 -5 6 6 6 11 1 17 -2 13 -5z m-6 -24 c53 0 50 -14 -4 -17 -38
-3 -43 0 -44 20 0 12 1 16 4 10 3 -8 22 -13 44 -13z m-1105 -27 c-11 -11 -17
4 -9 23 7 18 8 18 11 1 2 -10 1 -21 -2 -24z m-186 -18 c0 -7 -7 -18 -15 -25
-13 -11 -15 -7 -15 25 0 32 2 36 15 25 8 -7 15 -18 15 -25z m1320 1 c0 -9 -7
-12 -20 -9 -11 3 -20 9 -20 14 0 5 9 9 20 9 11 0 20 -6 20 -14z m-50 0 c0 -2
-11 -6 -25 -8 -14 -3 -25 -1 -25 3 0 5 11 9 25 9 14 0 25 -2 25 -4z m-118 -46
c3 -16 1 -30 -4 -30 -4 0 -8 14 -8 30 0 17 2 30 4 30 2 0 6 -13 8 -30z m148
11 c0 -10 -26 -9 -36 2 -4 4 2 7 14 7 12 0 22 -4 22 -9z m-678 -79 c-8 -32 -7
-39 4 -35 7 2 11 12 8 21 -2 9 2 5 9 -10 11 -24 14 -25 24 -10 9 14 10 12 5
-12 -3 -20 -1 -27 7 -22 6 4 11 13 11 21 0 8 5 17 12 21 8 5 9 -2 5 -23 -5
-27 -3 -30 16 -29 12 1 34 -2 48 -6 25 -8 26 -11 18 -51 -4 -23 -8 -46 -9 -50
0 -5 -4 -6 -9 -3 -5 3 -14 -1 -21 -9 -11 -13 -14 -13 -26 2 -10 13 -13 14 -9
3 3 -9 -2 -24 -11 -35 -8 -11 -13 -14 -9 -7 8 15 -7 16 -23 0 -9 -9 -12 -9
-12 0 0 7 -6 12 -12 11 -36 -4 -69 2 -62 12 4 8 -1 9 -15 4 -18 -5 -24 -2 -28
14 -3 12 -9 21 -15 21 -5 0 -4 -8 2 -19 14 -28 14 -29 -25 -27 -31 1 -35 4
-31 21 5 20 5 20 -10 0 -13 -17 -16 -18 -24 -5 -5 8 -10 10 -10 4 0 -7 -7 -14
-15 -18 -26 -10 -17 27 15 64 17 19 35 34 41 32 6 -1 8 2 5 7 -8 13 45 101 61
101 6 0 13 4 15 9 2 5 12 11 23 13 15 2 19 -2 18 -17 -1 -11 5 -3 14 18 20 47
27 42 15 -11z m598 32 c0 -2 -12 -4 -26 -4 -14 0 -23 4 -20 9 6 8 46 4 46 -5z
m60 8 c0 -4 -11 -9 -26 -10 -14 -1 -23 2 -19 8 7 12 45 14 45 2z m-60 -42
c-20 -13 -70 -13 -70 0 0 6 19 10 43 10 31 0 38 -3 27 -10z m-113 -22 c-3 -8
-6 -5 -6 6 -1 11 2 17 5 13 3 -3 4 -12 1 -19z m103 -8 c0 -5 -17 -9 -37 -9
l-38 2 35 7 c19 4 36 8 38 9 1 0 2 -3 2 -9z m210 6 c0 -3 -4 -8 -10 -11 -5 -3
-10 -1 -10 4 0 6 5 11 10 11 6 0 10 -2 10 -4z m-357 -26 c-3 -11 -7 -20 -9
-20 -2 0 -4 9 -4 20 0 11 4 20 9 20 5 0 7 -9 4 -20z m24 -22 c-3 -7 -5 -2 -5
12 0 14 2 19 5 13 2 -7 2 -19 0 -25z m43 2 c0 -5 -4 -10 -10 -10 -5 0 -10 5
-10 10 0 6 5 10 10 10 6 0 10 -4 10 -10z m-318 -52 c-7 -7 -12 -8 -12 -2 0 14
12 26 19 19 2 -3 -1 -11 -7 -17z m316 15 c-10 -2 -28 -2 -40 0 -13 2 -5 4 17
4 22 1 32 -1 23 -4z m-1372 -19 c-3 -9 -6 -18 -6 -20 0 -2 -4 -4 -9 -4 -5 0
-7 9 -4 20 3 11 10 20 15 20 6 0 7 -7 4 -16z m1204 0 c0 -2 -9 -4 -20 -4 -11
0 -20 4 -20 9 0 5 9 7 20 4 11 -3 20 -7 20 -9z m-570 -108 c0 -8 -9 -24 -21
-37 -18 -21 -20 -21 -14 -4 4 11 10 28 12 38 6 20 23 23 23 3z m806 -61 c15
-23 15 -27 0 -50 -28 -43 -76 -27 -76 27 0 48 50 63 76 23z"/>
<path d="M1464 1682 c6 -9 93 -9 102 1 4 4 -18 7 -50 7 -31 0 -55 -3 -52 -8z"/>
<path d="M2745 1610 c-7 -12 2 -12 30 0 19 8 19 9 -2 9 -12 1 -25 -3 -28 -9z"/>
<path d="M2720 1590 c0 -5 5 -10 11 -10 5 0 7 5 4 10 -3 6 -8 10 -11 10 -2 0
-4 -4 -4 -10z"/>
<path d="M2680 1570 c0 -5 5 -10 10 -10 6 0 10 5 10 10 0 6 -4 10 -10 10 -5 0
-10 -4 -10 -10z"/>
<path d="M2568 1533 c7 -3 16 -2 19 1 4 3 -2 6 -13 5 -11 0 -14 -3 -6 -6z"/>
<path d="M2718 1533 c7 -3 16 -2 19 1 4 3 -2 6 -13 5 -11 0 -14 -3 -6 -6z"/>
<path d="M1766 1454 c-4 -14 -5 -29 -2 -31 3 -3 8 7 12 21 3 15 4 29 1 32 -2
3 -8 -7 -11 -22z"/>
<path d="M1726 1424 c-4 -14 -5 -29 -2 -31 3 -3 8 7 12 21 3 15 4 29 1 32 -2
3 -8 -7 -11 -22z"/>
<path d="M1690 1404 c0 -8 5 -12 10 -9 6 3 10 10 10 16 0 5 -4 9 -10 9 -5 0
-10 -7 -10 -16z"/>
<path d="M1732 1354 c-11 -12 -9 -15 17 -20 34 -7 48 -4 43 10 -2 5 6 6 18 3
11 -3 20 -2 20 3 0 21 -80 25 -98 4z m45 0 c-3 -3 -12 -4 -19 -1 -8 3 -5 6 6
6 11 1 17 -2 13 -5z"/>
<path d="M1693 1313 c9 -2 23 -2 30 0 6 3 -1 5 -18 5 -16 0 -22 -2 -12 -5z"/>
<path d="M1776 1288 c-10 -35 -2 -58 21 -58 12 0 14 3 6 8 -6 4 -13 23 -15 42
l-4 35 -8 -27z"/>
<path d="M1663 1283 c9 -2 23 -2 30 0 6 3 -1 5 -18 5 -16 0 -22 -2 -12 -5z"/>
<path d="M1740 1280 c0 -8 -3 -26 -6 -40 -5 -24 -4 -24 11 4 12 20 14 31 6 39
-8 8 -11 7 -11 -3z"/>
<path d="M1672 1200 c0 -19 2 -27 5 -17 2 9 2 25 0 35 -3 9 -5 1 -5 -18z"/>
<path d="M1701 1204 c0 -11 3 -14 6 -6 3 7 2 16 -1 19 -3 4 -6 -2 -5 -13z"/>
<path d="M1825 1206 c46 -18 63 -20 50 -7 -6 5 -28 12 -50 16 l-40 6 40 -15z"/>
<path d="M1790 1190 c0 -5 5 -10 10 -10 6 0 10 5 10 10 0 6 -4 10 -10 10 -5 0
-10 -4 -10 -10z"/>
<path d="M1895 1188 c-4 -10 -4 -26 0 -35 8 -17 8 -17 12 0 3 9 3 25 0 35 -4
16 -4 16 -12 0z"/>
<path d="M1860 1160 c0 -5 5 -10 10 -10 6 0 10 5 10 10 0 6 -4 10 -10 10 -5 0
-10 -4 -10 -10z"/>
<path d="M2068 1158 c5 -5 16 -8 23 -6 8 3 3 7 -10 11 -17 4 -21 3 -13 -5z"/>
<path d="M2115 1160 c-3 -5 -1 -10 4 -10 6 0 11 5 11 10 0 6 -2 10 -4 10 -3 0
-8 -4 -11 -10z"/>
<path d="M1830 1145 c0 -8 4 -15 8 -15 5 0 9 7 9 15 0 8 -4 15 -9 15 -4 0 -8
-7 -8 -15z"/>
<path d="M1799 1148 c-6 -11 -3 -58 3 -58 4 0 8 14 8 30 0 25 -6 38 -11 28z"/>
<path d="M2085 1130 c3 -5 8 -10 11 -10 2 0 4 5 4 10 0 6 -5 10 -11 10 -5 0
-7 -4 -4 -10z"/>
<path d="M2120 1130 c0 -5 6 -10 14 -10 8 0 18 5 21 10 3 6 -3 10 -14 10 -12
0 -21 -4 -21 -10z"/>
<path d="M1767 1123 c-4 -3 -7 -13 -7 -22 1 -13 3 -13 11 2 11 19 8 33 -4 20z"/>
<path d="M1968 1085 c-5 -24 7 -45 27 -45 5 0 3 5 -5 10 -13 9 -13 11 -1 19
12 8 12 11 -1 25 -14 14 -16 13 -20 -9z"/>
<path d="M2055 1100 c-3 -5 -1 -10 4 -10 6 0 11 5 11 10 0 6 -2 10 -4 10 -3 0
-8 -4 -11 -10z"/>
<path d="M2085 1100 c-8 -13 15 -13 35 0 12 8 11 10 -7 10 -12 0 -25 -4 -28
-10z"/>
<path d="M1850 1066 c0 -9 7 -16 16 -16 9 0 14 5 12 12 -6 18 -28 21 -28 4z"/>
<path d="M1667 923 c-4 -3 -7 -13 -7 -22 1 -13 3 -13 11 2 11 19 8 33 -4 20z"/>
<path d="M1785 880 c-3 -5 -1 -10 4 -10 6 0 11 5 11 10 0 6 -2 10 -4 10 -3 0
-8 -4 -11 -10z"/>
<path d="M1677 843 c-4 -3 -7 -11 -7 -17 0 -6 5 -5 12 2 6 6 9 14 7 17 -3 3
-9 2 -12 -2z"/>
<path d="M1706 835 c-3 -8 -1 -15 4 -15 6 0 10 7 10 15 0 8 -2 15 -4 15 -2 0
-6 -7 -10 -15z"/>
<path d="M1585 800 c-3 -5 -2 -10 4 -10 5 0 13 5 16 10 3 6 2 10 -4 10 -5 0
-13 -4 -16 -10z"/>
<path d="M1595 2310 c3 -5 11 -10 16 -10 6 0 7 5 4 10 -3 6 -11 10 -16 10 -6
0 -7 -4 -4 -10z"/>
<path d="M1700 2301 c0 -5 -3 -18 -6 -28 -5 -16 -4 -16 10 1 18 23 20 36 6 36
-5 0 -10 -4 -10 -9z"/>
<path d="M1735 2281 c-3 -7 -10 -24 -15 -39 -4 -15 -11 -35 -15 -44 -4 -10 -3
-18 2 -18 5 0 14 21 21 47 8 28 16 43 22 37 6 -6 4 -25 -5 -49 -8 -22 -14 -49
-14 -60 0 -12 7 -3 15 19 8 22 16 42 19 45 7 7 34 -31 35 -49 0 -19 40 -24 40
-5 0 11 -43 68 -90 118 -4 5 -11 4 -15 -2z"/>
<path d="M1561 2264 c0 -11 3 -14 6 -6 3 7 2 16 -1 19 -3 4 -6 -2 -5 -13z"/>
<path d="M1490 2266 c0 -3 9 -10 20 -16 11 -6 20 -8 20 -6 0 3 -9 10 -20 16
-11 6 -20 8 -20 6z"/>
<path d="M1645 2250 c3 -5 10 -10 16 -10 5 0 9 5 9 10 0 6 -7 10 -16 10 -8 0
-12 -4 -9 -10z"/>
<path d="M1592 2245 c12 -13 98 -51 98 -45 0 5 -19 18 -43 29 -41 20 -67 27
-55 16z"/>
<path d="M1490 2190 c0 -5 5 -10 11 -10 5 0 7 5 4 10 -3 6 -8 10 -11 10 -2 0
-4 -4 -4 -10z"/>
<path d="M1598 2177 c-3 -19 -2 -25 4 -19 6 6 8 18 6 28 -3 14 -5 12 -10 -9z"/>
<path d="M1620 2195 c0 -6 69 -35 84 -35 6 1 -7 9 -29 20 -41 20 -55 24 -55
15z"/>
<path d="M1510 2150 c0 -5 5 -10 11 -10 5 0 7 5 4 10 -3 6 -8 10 -11 10 -2 0
-4 -4 -4 -10z"/>
<path d="M1656 2141 c12 -11 76 -32 82 -27 2 3 -13 12 -33 20 -42 18 -64 21
-49 7z"/>
<path d="M1760 2115 c0 -19 2 -35 4 -35 2 0 6 16 8 35 2 19 0 35 -4 35 -4 0
-8 -16 -8 -35z"/>
<path d="M1547 2129 c7 -7 15 -10 18 -7 3 3 -2 9 -12 12 -14 6 -15 5 -6 -5z"/>
<path d="M1616 2118 c-3 -13 -5 -34 -5 -48 1 -15 5 -7 10 19 9 47 6 68 -5 29z"/>
<path d="M1826 2123 c-4 -10 -10 -36 -13 -58 -3 -22 -6 -41 -8 -43 -1 -1 -26
9 -56 22 -29 14 -55 23 -58 21 -5 -6 -9 -3 62 -39 65 -33 70 -45 8 -20 -23 9
-44 14 -47 11 -7 -6 78 -47 99 -47 9 0 19 -5 23 -12 10 -15 34 90 26 111 -8
22 -20 -14 -21 -63 -1 -26 -4 -37 -11 -30 -6 6 -5 36 1 83 10 72 8 99 -5 64z"/>
<path d="M1546 2095 c10 -8 24 -14 29 -14 6 0 1 6 -9 14 -11 8 -24 15 -30 15
-5 0 -1 -7 10 -15z"/>
<path d="M1637 2103 c-3 -5 -1 -17 4 -28 7 -17 8 -17 8 8 1 27 -4 34 -12 20z"/>
<path d="M1670 2105 c0 -7 81 -47 86 -42 6 6 -60 47 -75 47 -6 0 -11 -2 -11
-5z"/>
<path d="M1787 2097 c-4 -10 -7 -26 -7 -35 1 -15 2 -15 11 1 6 10 9 25 7 35
-3 16 -4 15 -11 -1z"/>
<path d="M1663 2035 c0 -27 2 -38 4 -22 2 15 2 37 0 50 -2 12 -4 0 -4 -28z"/>
<path d="M1384 1999 c-5 -38 -7 -69 -3 -69 8 0 19 38 19 69 0 19 4 23 24 19
24 -5 24 -4 8 18 -30 41 -38 35 -48 -37z"/>
<path d="M1440 1975 c0 -14 2 -25 4 -25 2 0 6 11 8 25 3 14 1 25 -3 25 -5 0
-9 -11 -9 -25z"/>
<path d="M2285 1990 c-8 -13 25 -13 45 0 12 8 9 10 -12 10 -15 0 -30 -4 -33
-10z"/>
<path d="M1412 1960 c0 -14 2 -19 5 -12 2 6 2 18 0 25 -3 6 -5 1 -5 -13z"/>
<path d="M1673 1943 c-18 -7 -16 -23 2 -23 8 0 15 7 15 15 0 8 -1 15 -2 14 -2
0 -9 -3 -15 -6z"/>
<path d="M1430 1913 c0 -22 2 -25 10 -13 13 20 13 40 0 40 -5 0 -10 -12 -10
-27z"/>
<path d="M1477 1870 c-4 -14 -6 -36 -6 -50 1 -22 2 -20 10 8 6 19 9 41 7 50
-3 12 -6 10 -11 -8z"/>
<path d="M1350 1840 c0 -12 8 -12 35 0 18 8 17 9 -7 9 -16 1 -28 -3 -28 -9z"/>
<path d="M1495 1818 c-4 -10 -4 -26 0 -35 8 -17 8 -17 12 0 3 9 3 25 0 35 -4
16 -4 16 -12 0z"/>
<path d="M1360 1810 c0 -5 20 -10 44 -10 25 0 48 5 51 10 4 6 -13 10 -44 10
-28 0 -51 -4 -51 -10z"/>
<path d="M1440 1749 c0 -5 11 -9 25 -9 33 0 33 15 0 16 -14 1 -25 -2 -25 -7z"/>
</g>
</svg>
